<svg width="938" height="227" fill="none" xmlns="http://www.w3.org/2000/svg"><path fill-rule="evenodd" clip-rule="evenodd" d="M904.5 140.3c0 .3-.2.5-.5.5-7.8 0-11.9 1.7-18.5 4.4l-1.6.7c-1 .4-2 .2-3-.4a16 16 0 01-3.5-2.6 79.4 79.4 0 01-7.7-8.9l-5.2-6.9-2.2-3a106.2 106.2 0 00-5-6c-13-9.9-31.1-1.8-34.2 12.1-.8 3.5-1.6 6-2.5 8a8.9 8.9 0 01-3 3.8c-2.3 1.4-4.8.5-7.4-.9l-2.3-1.3a37 37 0 00-6.3-3.2 12.8 12.8 0 00-10.5.6c-1.2.6-2.9 2-4.8 3.8a118.8 118.8 0 00-10.5 11.8 178.8 178.8 0 01-2 2.4h-.2-.3a.5.5 0 01-.4-.3c-.6-5-3.4-10.3-7.3-14.2-3.9-4-8.9-6.3-13.9-5.6-8 1.3-12.7 6.2-16.6 12a127.6 127.6 0 00-5.6 9.2c-1.8 3-3.9 6-6.3 8.5a2 2 0 01-1 .6l-1.1-.1c-.7-.3-1.3-.8-1.8-1.4l-.8-.9-.7-.8-.7-.7-.6-.3c-1.8-.5-4.3-.6-6.9-.5-2.6.2-5 .6-7 1-3 .8-6.9 2.8-11.2 5.3a348 348 0 00-7.2 4.5l-6.5 4a89 89 0 01-13.6 7c-4.3 1.6-8.3 2.3-11.4 1.1a90 90 0 01-6.6-2.7l-1-.5-4.8-2.1a33.7 33.7 0 00-13.4-2.7c-2.5 0-4 .5-5 1.2l-1.1 1.1-.5.6-.5.7-1.3 1c-.6.3-1.2.4-2 .4-1.6 0-3.8-.6-7.2-2.1a63.4 63.4 0 01-15.8-11c-4-3.4-8-6.8-12.5-9.4-1.4-.8-4-2.7-7.2-5l-3.6-2.6c-4.9-3.6-10.8-7.7-16.7-11.2-5.9-3.6-11.8-6.5-16.6-7.6-2.4-.6-4.6-.7-6.3-.2-1.7.5-3.1 1.5-4 3.2a32.3 32.3 0 00-2.3 18.2c.2 6.3 0 12.6-4.2 18.2a45.2 45.2 0 00-10.2 27.2 137.2 137.2 0 01-3.8 25.2c-.4 1-.7 2-1.2 2.4-.2.3-.5.5-.8.6-.4.1-.7 0-1-.2-2.7-2.3-7.3-3.4-12.8-4-4.7-.5-10-.5-15.2-.6h-2.7c-6 0-12-.2-16.9-1.2-4.8-1-8.6-2.7-10-6a22 22 0 01-1.9-7.2c-.1-1.4-.3-2.6-.6-3.6a5.5 5.5 0 00-2.5-3.3c-1.3-.8-3.4-1.4-6.6-1.6-4.6-.2-7.7-1-9.8-2.4a8.8 8.8 0 01-3.7-5.7c-.5-2-.6-4.4-.7-7l-.1-1.1a57.1 57.1 0 00-1.8-12.8 239.3 239.3 0 00-1-5.3 11 11 0 00-1.3-3.4 2 2 0 00-.8-.7 1 1 0 00-.9 0c-8.3 3.3-16.9 5.5-25.5 7.8l-.5.1a77 77 0 01-14.7 3c-3.3 0-5.4-.6-6.7-2.2a9.9 9.9 0 01-1.7-3l-1.2-4v-.2c-1-3-2-6.7-4-11a24.6 24.6 0 00-7-8.9c-1.1-1-2.4-2-3.8-3l-.5-.4a81 81 0 01-4.5-3.7c-1.2-1-3-2-5-3.2a212.5 212.5 0 00-6.6-3.4 37.3 37.3 0 01-6-3.8c-1.5-1.4-2.7-2.8-3-4.5-.3-3.3-1.6-4.8-3.3-5.3-1.7-.6-4-.2-6.6.8-5 2-10.4 6.2-12.6 8l-8 6.3c-19.4 15.2-36.8 29-49.6 51.4v.1c-1.2 2-5.3 9.2-9.3 13.8-1 1.2-2 2.2-3 3-1 .7-2 1.2-2.9 1.2-1 0-1.8-.7-2.3-1.8-.5-1-.9-2.7-1-5-.3-6.7-2.8-14-6-21-2.6-5.5-5.5-10.9-8.2-15.7l-2.2-4c-13-24.1-27.6-49-50.4-65a436 436 0 00-4.5-3c-3.6-2.5-6.2-4.2-8.5-6.4a56.9 56.9 0 01-11.2-15.3c-4.3-7.4-8.9-15.2-14.6-20.5-3-3-6.4-5-10-6.1-3.8-1-8-1-12.7.8a17 17 0 00-5.2 3.4 52.2 52.2 0 00-5.3 5.7 155 155 0 00-8.4 11.5C63.5 76.4 45.8 91.7 28 107.1l-8.7 7.4a.5.5 0 11-.6-.7l8.6-7.5c17.9-15.4 35.5-30.5 49.2-50l1.2-1.7c1.9-2.8 4.5-6.4 7.3-9.9 1.7-2 3.5-4 5.4-5.7 1.8-1.7 3.7-3 5.5-3.6 4.9-1.8 9.2-2 13.2-.9s7.4 3.4 10.5 6.3c5.8 5.5 10.5 13.4 14.8 20.7l1 1.6a56 56 0 0010 13.6 72 72 0 008.3 6.2l4.5 3.1c23 16.1 37.7 41.2 50.8 65.3l2.2 4c2.7 4.8 5.6 10.2 8.2 15.8 3.2 7 5.8 14.4 6.1 21.4.1 2.2.4 3.7.9 4.6.4.9 1 1.1 1.5 1.2.5 0 1.3-.4 2.2-1 1-.7 1.9-1.7 2.9-2.9 3.9-4.5 7.9-11.5 9-13.6l.2-.1C255 158 272.6 144.2 292 129l8-6.4c2.2-1.7 7.7-6 12.9-8 2.5-1 5.1-1.6 7.2-.9 2.2.7 3.7 2.7 4 6.2.2 1.3 1.1 2.5 2.7 3.8 1.5 1.3 3.6 2.5 5.8 3.7a181.4 181.4 0 006.6 3.4c2 1.1 3.9 2.2 5.1 3.3l4.6 3.7.4.4 4 3c2.8 2.5 5.3 5.2 7.1 9.2 2 4.5 3.1 8.2 4 11.2v.2a50 50 0 001.3 4 9 9 0 001.4 2.6c1.1 1.3 2.8 2 6 1.8 3.1-.1 7.7-1 14.4-2.8l.6-.2c8.6-2.3 17-4.5 25.3-7.7a2 2 0 011.7 0c.4.2.8.6 1.2 1a12 12 0 011.5 3.8 51.2 51.2 0 011 5.4l.5 2.4a58 58 0 011.3 10.4v1.2c.2 2.6.3 4.8.8 6.8a7.8 7.8 0 003.3 5c1.9 1.3 4.8 2 9.3 2.3 3.3.2 5.5.8 7 1.7 1.6 1 2.4 2.3 3 3.9.3 1.1.5 2.4.6 3.8l.2 1.2c.3 1.8.6 3.7 1.5 5.7 1.3 2.9 4.6 4.5 9.4 5.4 4.7 1 10.6 1.1 16.8 1.2h2.6c5.2 0 10.6.1 15.3.6a25.2 25.2 0 0113.5 4.3l.2-.3c.4-.4.7-1 1-2.1.7-2 1.4-5 2-8.4 1-6.5 1.8-14 1.8-16.5 0-10.3 4.3-20 10.4-27.9 4-5.2 4.2-11.2 4-17.5v-1.4c-.3-5.8-.5-11.8 2.4-17.3 1-2 2.6-3.1 4.6-3.7 2-.5 4.3-.3 6.8.2 5 1.2 11 4.1 17 7.7a241.7 241.7 0 0120.4 14l7 4.9c4.5 2.6 8.6 6 12.6 9.4l1.6 1.3c4.5 3.8 9 7.3 14 9.5a19 19 0 006.8 2.1c.7 0 1.1-.1 1.5-.3l1-.8.5-.6.5-.6c.4-.4.8-.9 1.4-1.3a9.1 9.1 0 015.5-1.4c5.7 0 9.8 1.2 13.8 2.7l4.8 2.2 1 .5 6.5 2.7c2.8 1 6.5.5 10.7-1.1a88 88 0 0013.5-7 473.4 473.4 0 0013.7-8.4c4.3-2.6 8.3-4.6 11.5-5.4 2-.5 4.5-1 7.1-1 2.6-.2 5.3-.1 7.3.5.3 0 .6.2.9.5l.8.7.8.8.7 1c.6.5 1 .9 1.4 1l.6.1.5-.3a44.3 44.3 0 008.2-11.7c1.1-2 2.3-4 3.6-5.8 4-6 8.8-11.1 17.3-12.5 5.4-.8 10.7 1.8 14.7 5.9a27 27 0 017.5 13.7l1.3-1.6a327 327 0 0110.5-11.8c1.9-1.8 3.7-3.3 5-4 4.2-2 8-1.8 11.3-.6a38.7 38.7 0 018.8 4.5c2.6 1.4 4.6 2 6.4 1 .9-.6 1.7-1.7 2.6-3.5.8-1.8 1.6-4.3 2.4-7.7a22.8 22.8 0 0135.8-12.7l2.2 2.3 3 3.9 2.3 3 5 6.9c2.7 3.4 5.4 6.6 7.7 8.8 1.2 1.1 2.3 2 3.2 2.4 1 .5 1.7.6 2.2.4l1.6-.7c6.6-2.7 11-4.5 18.9-4.5.3 0 .5.2.5.5z" fill="#fff"/><path d="M74 10H77c1.7 0 2.4-.8 2.4-2 0-1-.8-1.7-1.5-1.8.7-.2 1.2-.7 1.2-1.6 0-1-.7-1.9-2.3-1.9h-2.6V10zm1.2-1V6.8h1.6c.9 0 1.4.6 1.4 1.3 0 .6-.4 1-1.4 1h-1.6zm0-3.1V3.7h1.5c.9 0 1.3.4 1.3 1 0 .7-.6 1.2-1.3 1.2h-1.5zM82.1 10h4.6V9h-3.5V6.9h3.3v-1h-3.3V3.8h3.5v-1H82V10zM89.1 10h.3c1.7 0 2-1.2 2.2-3.6V3.7h2.6V10h1V2.7h-4.6v3.4c-.2 2.1-.4 3-1.3 3h-.2v.9zM98.3 2.7V10h1l3.7-5.3h.1V10h1.1V2.7h-1l-3.7 5.4V2.7h-1.2zM111.6 10h1.4l-3-4 3-3.3h-1.4l-2.8 3.1h-.4v-3h-1V10h1V6.7h.8l2.4 3.3zM115.6 2.7V10h1l3.7-5.3V10h1.1V2.7h-1l-3.7 5.4V2.7h-1.1zM124.5 2.7V10h1l3.7-5.3h.1V10h1.1V2.7h-1l-3.7 5.4V2.7h-1.2zm3.7-1.8c0 .3-.2.7-.7.7-.5 0-.7-.4-.7-.7h-.9c0 .8.6 1.3 1.6 1.3S129 1.7 129 1h-.8zM69.5 22h1.1v-3.2h3.7V22h1v-7.3h-1V18h-3.7v-3.2h-1V22zM84.8 18.4c0-2.4-1.4-3.8-3.3-3.8s-3.3 1.4-3.3 3.8c0 2.3 1.4 3.7 3.3 3.7s3.3-1.4 3.3-3.7zm-1.1 0c0 1.7-1 2.7-2.2 2.7-1.3 0-2.2-1-2.2-2.7 0-1.8 1-2.8 2.2-2.8 1.3 0 2.2 1 2.2 2.8zM87.6 22h2.8c1.7 0 2.5-.8 2.5-2 0-1-.8-1.7-1.5-1.8.6-.2 1.2-.7 1.2-1.6 0-1-.7-1.9-2.3-1.9h-2.7V22zm1.1-1v-2.3h1.7c.8 0 1.4.6 1.4 1.3 0 .6-.4 1-1.5 1h-1.6zm0-3.1v-2.2h1.5c1 0 1.3.4 1.3 1 0 .7-.5 1.2-1.3 1.2h-1.5zM100.2 14.7h-4.5V22h1v-6.3h3.5v-1zM109 18.4c0-2.4-1.4-3.8-3.3-3.8s-3.3 1.4-3.3 3.8c0 2.3 1.4 3.7 3.3 3.7s3.3-1.4 3.3-3.7zm-1.1 0c0 1.7-1 2.7-2.2 2.7-1.3 0-2.2-1-2.2-2.7 0-1.8 1-2.8 2.2-2.8 1.3 0 2.2 1 2.2 2.8zM111.8 22h1.1v-2.6h1.5c1.7 0 2.6-1 2.6-2.3 0-1.4-.9-2.4-2.6-2.4h-2.6V22zm1.1-3.5v-2.8h1.4c1.1 0 1.5.6 1.5 1.4 0 .8-.4 1.4-1.5 1.4H113zM126 18.4c0-2.4-1.3-3.8-3.2-3.8-2 0-3.3 1.4-3.3 3.8 0 2.3 1.4 3.7 3.3 3.7s3.3-1.4 3.3-3.7zm-1 0c0 1.7-1 2.7-2.2 2.7-1.3 0-2.2-1-2.2-2.7 0-1.8 1-2.8 2.2-2.8 1.2 0 2.2 1 2.2 2.8zM128.4 23.8h1V22h5v1.7h1v-2.6h-.9v-6.4h-4.4l-.2 3.1c-.1 2-.6 2.9-1 3.3h-.5v2.7zM130 21c.5-.7.7-1.8.8-3.3l.1-2.1h2.5V21H130zM5.9 125.7H.3v7.3h1v-6.3h3.5v6.3h1v-7.3zM15.1 128c-.3-1.5-1.5-2.4-3-2.4-1.9 0-3.3 1.4-3.3 3.8 0 2.3 1.4 3.7 3.3 3.7 1.6 0 2.8-1 3-2.4H14c-.2.9-1 1.4-1.9 1.4-1.2 0-2.2-1-2.2-2.7 0-1.8 1-2.8 2.2-2.8 1 0 1.7.6 1.9 1.5H15zM22.2 133h1.4l-3-4 3-3.3h-1.4l-2.8 3.1H19v-3h-1v7.2h1v-3.3h.8l2.4 3.3zM32.1 129.4c0-2.4-1.4-3.8-3.2-3.8-2 0-3.3 1.4-3.3 3.8 0 2.3 1.4 3.7 3.3 3.7 1.8 0 3.2-1.4 3.2-3.7zm-1 0c0 1.7-1 2.7-2.2 2.7-1.3 0-2.2-1-2.2-2.7 0-1.8.9-2.8 2.2-2.8 1.2 0 2.1 1 2.1 2.8zM35 133h2.8c1.7 0 2.4-.8 2.4-2 0-1-.8-1.7-1.5-1.8.7-.2 1.3-.7 1.3-1.6 0-1-.8-1.9-2.3-1.9H35v7.3zm1-1v-2.3h1.7c.9 0 1.4.6 1.4 1.3 0 .6-.4 1-1.4 1H36zm0-3.1v-2.2h1.6c.9 0 1.3.4 1.3 1 0 .7-.6 1.2-1.3 1.2H36zM163.5 153.7h2.2v6.3h1.1v-6.3h2.3v-1h-5.6v1zM171.9 160h2.7c1.7 0 2.5-.8 2.5-2 0-1-.8-1.7-1.5-1.8.7-.2 1.2-.7 1.2-1.6 0-1-.7-1.9-2.3-1.9H172v7.3zm1-1v-2.3h1.7c.9 0 1.4.6 1.4 1.3 0 .6-.4 1-1.5 1H173zm0-3.1v-2.2h1.6c.8 0 1.2.4 1.2 1 0 .7-.5 1.2-1.3 1.2H173zM179.9 160h4.6v-1H181v-2.2h3.2v-1H181v-2.1h3.5v-1h-4.6v7.3zM187.4 160h1.1v-2.6h1.5c1.7 0 2.5-1 2.5-2.3 0-1.4-.8-2.4-2.5-2.4h-2.6v7.3zm1.1-3.5v-2.8h1.4c1 0 1.5.6 1.5 1.4 0 .8-.4 1.4-1.5 1.4h-1.4zM196.4 155.7v-3h-1v7.3h2.7c1.6 0 2.5-.9 2.5-2.2 0-1.3-1-2.1-2.5-2.1h-1.7zm0 .9h1.7c.9 0 1.4.5 1.4 1.2s-.5 1.3-1.4 1.3h-1.7v-2.5zM261.6 182v-7.3h-2.5c-1.7 0-2.6 1-2.6 2.3 0 1 .5 1.7 1.4 2l-1.6 3h1.2l1.5-2.8h1.6v2.8h1zm-1-3.7h-1.4c-1.1 0-1.6-.5-1.6-1.3s.5-1.3 1.6-1.3h1.4v2.6zM264.7 182h1.1v-2.6h1.5c1.7 0 2.6-1 2.6-2.3 0-1.4-.9-2.4-2.6-2.4h-2.6v7.3zm1.1-3.5v-2.8h1.4c1.1 0 1.6.6 1.6 1.4 0 .8-.5 1.4-1.6 1.4h-1.4zM279 178.4c0-2.4-1.4-3.8-3.3-3.8s-3.3 1.4-3.3 3.8c0 2.3 1.4 3.7 3.3 3.7s3.3-1.4 3.3-3.7zm-1.1 0c0 1.7-1 2.7-2.2 2.7-1.3 0-2.2-1-2.2-2.7 0-1.8 1-2.8 2.2-2.8 1.2 0 2.2 1 2.2 2.8zM287.9 177c-.3-1.5-1.5-2.4-3-2.4-2 0-3.3 1.4-3.3 3.8 0 2.3 1.4 3.7 3.3 3.7 1.6 0 2.7-1 3-2.4h-1.1c-.2.9-1 1.4-2 1.4-1.2 0-2.1-1-2.1-2.7 0-1.8 1-2.8 2.2-2.8.9 0 1.7.6 1.9 1.5h1zM290.1 182h.3c1.7 0 2-1.2 2.2-3.6l.1-2.7h2.5v6.3h1v-7.3h-4.5l-.2 3.4c0 2.1-.3 3-1.2 3h-.2v.9zM300 182l.6-2h2.9l.7 2h1.1l-2.6-7.3h-1.3l-2.6 7.3h1.2zm1-2.8l1-3.2h.1l1 3.2H301zM307.9 182h2.8c1.6 0 2.4-.8 2.4-2 0-1-.8-1.7-1.5-1.8.7-.2 1.2-.7 1.2-1.6 0-1-.7-1.9-2.3-1.9H308v7.3zm1-1v-2.3h1.7c.9 0 1.4.6 1.4 1.3 0 .6-.4 1-1.4 1H309zm0-3.1v-2.2h1.6c.8 0 1.3.4 1.3 1 0 .7-.6 1.2-1.4 1.2H309zM315.4 182h.3c1.6 0 2-1.2 2.1-3.6l.1-2.7h2.5v6.3h1.1v-7.3h-4.6l-.1 3.4c-.1 2.1-.4 3-1.2 3h-.2v.9zM325.7 177.7v-3h-1v7.3h2.6c1.6 0 2.6-.9 2.6-2.2 0-1.3-1-2.1-2.6-2.1h-1.6zm0 .9h1.6c1 0 1.5.5 1.5 1.2s-.5 1.3-1.5 1.3h-1.6v-2.5zM339.8 114.7v7.3h1v-5.3h.1l2.2 5.3h.8l2.2-5.3v5.3h1v-7.3h-1.3l-2.3 5.7-2.4-5.7h-1.3zM351 122l.7-2h2.9l.6 2h1.2l-2.6-7.3h-1.3L350 122h1.2zm1-2.8l1.1-3.2 1.2 3.2H352zM359 122h1v-3.2h3.7v3.2h1v-7.3h-1v3.2H360v-3.2H359v7.3zM367.5 115.7h2.3v6.3h1v-6.3h2.4v-1h-5.7v1zM376.4 122.1h.5c1.1 0 1.5-.6 1.8-1.4l2.6-6H380l-1.7 4.2-1.9-4.2h-1.2l2.6 5.5-.1.2c-.2.4-.4.7-1 .7h-.4v1zM383.8 122h1v-2.6h1.6c1.7 0 2.5-1 2.5-2.3 0-1.4-.8-2.4-2.5-2.4h-2.6v7.3zm1-3.5v-2.8h1.5c1 0 1.5.6 1.5 1.4 0 .8-.4 1.4-1.5 1.4h-1.4zM398 118.4c0-2.4-1.4-3.8-3.3-3.8s-3.2 1.4-3.2 3.8c0 2.3 1.3 3.7 3.2 3.7 2 0 3.3-1.4 3.3-3.7zm-1 0c0 1.7-1 2.7-2.3 2.7-1.2 0-2.2-1-2.2-2.7 0-1.8 1-2.8 2.2-2.8 1.3 0 2.2 1 2.2 2.8zM400.9 122h2.8c1.7 0 2.4-.8 2.4-2 0-1-.8-1.7-1.5-1.8.7-.2 1.2-.7 1.2-1.6 0-1-.7-1.9-2.3-1.9H401v7.3zm1-1v-2.3h1.7c.9 0 1.4.6 1.4 1.3 0 .6-.4 1-1.4 1H402zm0-3.1v-2.2h1.6c.8 0 1.3.4 1.3 1 0 .7-.6 1.2-1.4 1.2H402zM415.2 118.4c0-2.4-1.4-3.8-3.2-3.8-2 0-3.3 1.4-3.3 3.8 0 2.3 1.4 3.7 3.3 3.7 1.8 0 3.2-1.4 3.2-3.7zm-1 0c0 1.7-1 2.7-2.2 2.7-1.3 0-2.2-1-2.2-2.7 0-1.8 1-2.8 2.2-2.8 1.2 0 2.1 1 2.1 2.8zM396.6 150h1.4l-3-4 3-3.3h-1.4l-2.8 3.1h-.4v-3h-1v7.2h1v-3.3h.8l2.4 3.3zM406.5 146.4c0-2.4-1.4-3.8-3.2-3.8-2 0-3.3 1.4-3.3 3.8 0 2.3 1.4 3.7 3.3 3.7 1.8 0 3.2-1.4 3.2-3.7zm-1 0c0 1.7-1 2.7-2.2 2.7-1.3 0-2.2-1-2.2-2.7 0-1.8.9-2.8 2.2-2.8 1.2 0 2.1 1 2.1 2.8zM408.7 143.7h2.3v6.3h1v-6.3h2.4v-1h-5.7v1zM417.1 150h4.6v-1h-3.5v-2.2h3.2v-1h-3.2v-2.1h3.5v-1H417v7.3zM424 150h.4c1.6 0 2-1.2 2.1-3.6l.2-2.7h2.4v6.3h1.1v-7.3h-4.6l-.1 3.4c0 2.1-.3 3-1.2 3h-.2v.9zM434.4 145.7v-3h-1v7.3h2.6c1.7 0 2.6-.9 2.6-2.2 0-1.3-1-2.1-2.6-2.1h-1.6zm0 .9h1.6c1 0 1.5.5 1.5 1.2s-.5 1.3-1.5 1.3h-1.6v-2.5zM441.4 150h1.1v-3.2h3.7v3.2h1v-7.3h-1v3.2h-3.7v-3.2h-1v7.3zM450.4 142.7v7.3h1l3.7-5.3v5.3h1.1v-7.3h-1l-3.7 5.4v-5.4h-1.1zM459.5 142.7v2.4c0 1.7 1 2.3 2.5 2.3l1.9-.2v2.8h1v-7.3h-1v3.5c-.6.2-1.3.2-1.9.2-1 0-1.4-.3-1.4-1.3v-2.4h-1.1zM471.3 146H468v.8h3.3v-.9zM476.7 142.7h-1c0 .2-.6 1.1-1.7 1.1v1c.9 0 1.4-.4 1.6-.6v5.8h1.1v-7.3zM528.3 181.7h-4.5v7.3h1.1v-6.3h3.4v-1zM530.5 189h.3c1.7 0 2-1.2 2.2-3.6v-2.7h2.6v6.3h1v-7.3h-4.5l-.2 3.4c0 2.1-.3 3-1.2 3h-.2v.9zM540.4 189l.6-2h2.9l.6 2h1.2l-2.6-7.3h-1.3l-2.6 7.3h1.2zm1-2.8l1-3.2 1.2 3.2h-2.2zM550.7 189.1c1.5 0 2.6-.9 2.6-2.1 0-1-.6-1.6-1.6-1.7.8-.3 1.3-.9 1.3-1.7 0-1-.9-2-2.3-2-1.3 0-2.4.8-2.4 2h1c0-.7.7-1 1.4-1s1.2.4 1.2 1c0 .8-.5 1.2-1.3 1.2h-.6v1h.6c1 0 1.6.4 1.6 1.2 0 .7-.7 1.2-1.5 1.2s-1.4-.4-1.5-1.1h-1c0 1.2 1 2 2.5 2zM562.5 185.4c0-2.4-1.4-3.8-3.3-3.8-1.8 0-3.2 1.4-3.2 3.8 0 2.3 1.4 3.7 3.2 3.7 2 0 3.3-1.4 3.3-3.7zm-1 0c0 1.7-1 2.7-2.3 2.7-1.2 0-2.1-1-2.1-2.7 0-1.8.9-2.8 2.1-2.8 1.3 0 2.2 1 2.2 2.8zM565.4 189h2.8c1.7 0 2.4-.8 2.4-2 0-1-.8-1.7-1.5-1.8.7-.2 1.2-.7 1.2-1.6 0-1-.7-1.9-2.2-1.9h-2.7v7.3zm1-1v-2.3h1.7c.9 0 1.4.6 1.4 1.3 0 .6-.4 1-1.4 1h-1.6zm0-3.1v-2.2h1.6c.9 0 1.3.4 1.3 1 0 .7-.6 1.2-1.3 1.2h-1.5zM531.6 117.3H526v7.2h1v-6.3h3.5v6.3h1v-7.2zM534.7 124.5h4.6v-1h-3.5v-2.1h3.3v-1h-3.3v-2.2h3.5v-1h-4.6v7.3zM542.3 124.5h1V122h1.6c1.6 0 2.5-1 2.5-2.4 0-1.3-.8-2.3-2.5-2.3h-2.6v7.2zm1-3.5v-2.8h1.4c1.1 0 1.6.6 1.6 1.4 0 .8-.5 1.4-1.5 1.4h-1.4zM550.2 117.3v7.2h1v-5.2l2.2 5.2h.9l2.1-5.2h.1v5.2h1v-7.2h-1.3l-2.3 5.6-2.4-5.6h-1.3zM562 120.2v-3h-1.2v7.3h2.8c1.6 0 2.5-.9 2.5-2.2 0-1.3-1-2.1-2.5-2.1h-1.7zm0 1h1.6c.9 0 1.4.4 1.4 1.1 0 .7-.5 1.3-1.4 1.3h-1.7v-2.5zM598.4 155.7h2.3v6.3h1.1v-6.3h2.3v-1h-5.7v1zM608 154.7h-1.2v7.3h1.1v-3h1.3c.2 2 1.5 3.1 3.2 3.1 2 0 3.3-1.4 3.3-3.7 0-2.4-1.4-3.8-3.3-3.8-1.8 0-3 1.3-3.2 3.4h-1.3v-3.3zm6.6 3.7c0 1.7-1 2.7-2.2 2.7-1.2 0-2.2-1-2.2-2.7 0-1.8 1-2.8 2.2-2.8 1.3 0 2.2 1 2.2 2.8zM618.4 154.7v7.3h1v-5.3h.1l2.1 5.3h1l2-5.3h.1v5.3h1v-7.3h-1.3l-2.3 5.7-2.4-5.7h-1.3zM629 162h4.7v-1H630v-2.2h3.3v-1H630v-2.1h3.5v-1h-4.5v7.3zM636.6 162h1v-3.2h3.7v3.2h1.1v-7.3h-1.1v3.2h-3.6v-3.2h-1.1v7.3zM646.6 157.7v-3h-1.1v7.3h2.7c1.6 0 2.6-.9 2.6-2.2 0-1.3-1-2.1-2.6-2.1h-1.6zm0 .9h1.6c1 0 1.5.5 1.5 1.2s-.5 1.3-1.5 1.3h-1.6v-2.5zM697.5 180.4c0-2.4-1.4-3.8-3.3-3.8-2 0-3.3 1.4-3.3 3.8 0 2.3 1.4 3.7 3.3 3.7s3.3-1.4 3.3-3.7zm-1.1 0c0 1.7-1 2.7-2.2 2.7-1.3 0-2.2-1-2.2-2.7 0-1.8 1-2.8 2.2-2.8 1.2 0 2.2 1 2.2 2.8zM700.3 176.7v7.3h1v-5.3h.1l2.2 5.3h.8l2.2-5.3v5.3h1.1v-7.3h-1.3l-2.3 5.7h-.1l-2.3-5.7h-1.4zM717 179c-.2-1.5-1.4-2.4-3-2.4-1.9 0-3.3 1.4-3.3 3.8 0 2.3 1.4 3.7 3.3 3.7 1.6 0 2.8-1 3-2.4h-1c-.3.9-1 1.4-2 1.4-1.2 0-2.2-1-2.2-2.7 0-1.8 1-2.8 2.2-2.8 1 0 1.7.6 2 1.5h1zM724.1 184h1.4l-3-4 3-3.3h-1.4l-2.8 3.1h-.4v-3h-1v7.2h1v-3.3h.8l2.4 3.3zM805.4 105h1.3l-3-4 3-3.3h-1.3l-2.9 3.1h-.3v-3H801v7.2h1v-3.3h.8l2.5 3.3zM809.3 105h1.1v-2.6h1.5c1.7 0 2.5-1 2.5-2.3 0-1.4-.8-2.4-2.5-2.4h-2.6v7.3zm1.1-3.5v-2.8h1.4c1 0 1.5.6 1.5 1.4 0 .8-.4 1.4-1.5 1.4h-1.4zM817 105l.7-2h2.9l.6 2h1.2l-2.6-7.3h-1.3L816 105h1.2zm1-2.8l1.1-3.2 1.2 3.2H818zM830.7 100c-.3-1.5-1.5-2.4-3-2.4-2 0-3.3 1.4-3.3 3.8 0 2.3 1.4 3.7 3.3 3.7 1.5 0 2.7-1 3-2.4h-1.2c-.1.9-1 1.4-1.8 1.4-1.3 0-2.2-1-2.2-2.7 0-1.8 1-2.8 2.2-2.8.9 0 1.7.6 1.8 1.5h1.2zM833.5 105h1v-3.2h3.7v3.2h1v-7.3h-1v3.2h-3.6v-3.2h-1.1v7.3zM848.7 101.4c0-2.4-1.4-3.8-3.3-3.8s-3.2 1.4-3.2 3.8c0 2.3 1.3 3.7 3.2 3.7 2 0 3.3-1.4 3.3-3.7zm-1 0c0 1.7-1 2.7-2.3 2.7-1.2 0-2.2-1-2.2-2.7 0-1.8 1-2.8 2.2-2.8 1.3 0 2.2 1 2.2 2.8zM856.4 105v-7.3h-2.6c-1.7 0-2.5 1-2.5 2.3 0 1 .5 1.7 1.4 2l-1.7 3h1.3l1.5-2.8h1.5v2.8h1.1zm-1-3.7h-1.5c-1 0-1.5-.5-1.5-1.3s.5-1.3 1.6-1.3h1.3v2.6zM859.5 105h1.1v-2.6h1.5c1.7 0 2.5-1 2.5-2.3 0-1.4-.8-2.4-2.5-2.4h-2.6v7.3zm1.1-3.5v-2.8h1.4c1 0 1.5.6 1.5 1.4 0 .8-.4 1.4-1.5 1.4h-1.4zM873.5 100c-.3-1.5-1.5-2.4-3-2.4-2 0-3.3 1.4-3.3 3.8 0 2.3 1.4 3.7 3.3 3.7 1.5 0 2.7-1 3-2.4h-1.2c-.1.9-1 1.4-1.8 1.4-1.3 0-2.2-1-2.2-2.7 0-1.8 1-2.8 2.2-2.8.9 0 1.7.6 1.8 1.5h1.2zM880.6 105h1.3l-3-4 3-3.3h-1.3l-2.9 3.1h-.3v-3h-1.1v7.2h1v-3.3h.8l2.5 3.3zM875.9 162.1h.5c1.1 0 1.5-.6 1.8-1.4l2.5-6h-1.1l-1.7 4.2-2-4.2h-1l2.5 5.5-.1.2c-.2.4-.4.7-1 .7h-.4v1zM882.7 162h.3c1.7 0 2-1.2 2.2-3.6l.1-2.7h2.5v6.3h1v-7.3h-4.5l-.2 3.4c0 2.1-.3 3-1.2 3h-.2v.9zM892.6 162l.6-2h2.9l.6 2h1.2l-2.6-7.3H894l-2.6 7.3h1.2zm1-2.8l1-3.2 1.2 3.2h-2.2zM900.5 162h1v-3.2h3.7v3.2h1v-7.3h-1v3.2h-3.6v-3.2h-1.1v7.3zM912.5 158h-3.2v.8h3.2v-.9zM915.4 162.1h.5c1.1 0 1.5-.6 1.8-1.4l2.5-6h-1.1l-1.7 4.2-2-4.2h-1l2.5 5.5-.1.2c-.2.4-.4.7-1 .7h-.4v1zM922.2 163.8h1V162h5v1.7h1v-2.6h-.8v-6.4h-4.5l-.2 3.1c0 2-.5 2.9-1 3.3h-.5v2.7zm1.8-2.7c.4-.7.7-1.8.8-3.3l.1-2.1h2.4v5.4H924zM931.7 159.7c.1 1.4 1 2.4 2.8 2.4 1.7 0 2.9-1.3 2.9-3.3v-.8c0-2-1.2-3.4-3-3.4-1.7 0-2.6 1-2.7 2.5h1.1c.1-1 .6-1.5 1.6-1.5 1.2 0 1.8 1 1.8 2.4h-2.6v1h2.6c0 1.2-.6 2.2-1.7 2.2s-1.6-.5-1.7-1.5h-1.1z" fill="#fff"/><path d="M106.7 34.3a3.5 3.5 0 11-7 0 3.5 3.5 0 017 0z" fill="#272722"/><path fill-rule="evenodd" clip-rule="evenodd" d="M103.3 36.8a2.5 2.5 0 100-5 2.5 2.5 0 000 5zm0 1a3.5 3.5 0 100-7 3.5 3.5 0 000 7z" fill="#fff"/><path d="M21 115.5a3.5 3.5 0 11-7 0 3.5 3.5 0 017 0z" fill="#131313"/><path fill-rule="evenodd" clip-rule="evenodd" d="M17.5 118a2.5 2.5 0 100-5 2.5 2.5 0 000 5zm0 1a3.5 3.5 0 100-7 3.5 3.5 0 000 7z" fill="#fff"/><path d="M215 156.6a3.5 3.5 0 11-7 0 3.5 3.5 0 017 0z" fill="#4D5648"/><path fill-rule="evenodd" clip-rule="evenodd" d="M211.5 159a2.5 2.5 0 100-4.9 2.5 2.5 0 000 5zm0 1a3.5 3.5 0 100-6.9 3.5 3.5 0 000 7z" fill="#fff"/><path d="M247.3 178.4a3.5 3.5 0 11-7 0 3.5 3.5 0 017 0z" fill="#47443E"/><path fill-rule="evenodd" clip-rule="evenodd" d="M243.8 181a2.5 2.5 0 100-5 2.5 2.5 0 000 5zm0 1a3.5 3.5 0 100-7 3.5 3.5 0 000 7z" fill="#fff"/><path d="M335.5 127.8a3.5 3.5 0 11-7 0 3.5 3.5 0 017 0z" fill="#93A47C"/><path fill-rule="evenodd" clip-rule="evenodd" d="M332 130.3a2.5 2.5 0 100-5 2.5 2.5 0 000 5zm0 1a3.5 3.5 0 100-7 3.5 3.5 0 000 7z" fill="#fff"/><path d="M413.2 161.8a3.5 3.5 0 11-7 0 3.5 3.5 0 017 0z" fill="#738F8C"/><path fill-rule="evenodd" clip-rule="evenodd" d="M409.8 164.3a2.5 2.5 0 100-5 2.5 2.5 0 000 5zm0 1a3.5 3.5 0 100-7 3.5 3.5 0 000 7z" fill="#fff"/><path d="M515.4 185.4a3.5 3.5 0 11-7 0 3.5 3.5 0 017 0z" fill="#789186"/><path fill-rule="evenodd" clip-rule="evenodd" d="M512 187.9a2.5 2.5 0 100-5 2.5 2.5 0 000 5zm0 1a3.5 3.5 0 100-7 3.5 3.5 0 000 7z" fill="#fff"/><path d="M548.6 133.9a3.5 3.5 0 11-7 0 3.5 3.5 0 017 0z" fill="#8CBABB"/><path fill-rule="evenodd" clip-rule="evenodd" d="M545.1 136.4a2.5 2.5 0 100-5 2.5 2.5 0 000 5zm0 1a3.5 3.5 0 100-7 3.5 3.5 0 000 7z" fill="#fff"/><path d="M605.4 173.2a3.5 3.5 0 11-7 0 3.5 3.5 0 017 0z" fill="#414847"/><path fill-rule="evenodd" clip-rule="evenodd" d="M601.9 175.7a2.5 2.5 0 100-5 2.5 2.5 0 000 5zm0 1a3.5 3.5 0 100-7 3.5 3.5 0 000 7z" fill="#fff"/><path d="M711 160a3.5 3.5 0 11-7 0 3.5 3.5 0 017 0z" fill="#577379"/><path fill-rule="evenodd" clip-rule="evenodd" d="M707.5 162.6a2.5 2.5 0 100-5 2.5 2.5 0 000 5zm0 1a3.5 3.5 0 100-7 3.5 3.5 0 000 7z" fill="#fff"/><path d="M846 113a3.5 3.5 0 11-7 0 3.5 3.5 0 017 0z" fill="#3E403A"/><path fill-rule="evenodd" clip-rule="evenodd" d="M842.5 115.4a2.5 2.5 0 100-5 2.5 2.5 0 000 5zm0 1a3.5 3.5 0 100-7 3.5 3.5 0 000 7z" fill="#fff"/><path d="M909 140.5a3.5 3.5 0 11-7 0 3.5 3.5 0 017 0z" fill="#181A19"/><path fill-rule="evenodd" clip-rule="evenodd" d="M905.5 143a2.5 2.5 0 100-5 2.5 2.5 0 000 5zm0 1a3.5 3.5 0 100-7 3.5 3.5 0 000 7z" fill="#fff"/></svg>