<svg width="177" height="52" fill="none" xmlns="http://www.w3.org/2000/svg"><path d="M7.8 23.4l2.6-1.3 4.2-6.3 1.3-.5 1.4 6.3-1.8.3-1.4-2.6-1 4h4.5l4.7 1.3 2-1.2 3.1 3.3 1.4-6.1 2.2 2.3 1.4-2 2.2-.6 3.2-3 .6-1.5 2.6.4 1.1 1.5-2 4.2 5-2.5V18l1.8-.4 2 2.1 2.1-2.5v-1.8l3.4-2.3 1.3-2H58l3.7-7.8L65 0 66 2l-1.9 2.4.7 1.5 1.8.4 1.4 6.4v5.4l2.6 3.6 1.3 5-4.5-2.9-2-8.3-1.1.3-.2 5.6-3.2 5.3-1 8.1 2.2.5 1-1.1 2.1 2.4L67 44l-.1 4.7h-2L64 42l-1.5 2-3.2-.7-2.5-2.2-3 1L54 47l-2.3.7-3.4 2.6-4.1-.6-1.7-1-2.5.5.8 1-2 1.3-1.6-.8L34 52l-4.7-2.4-1.8-4.1-1.6.1-1.8-1.5v-1l-5.8-.7-1 3.1L14 44l-1.8-3H8.2l-.4 4.8-2.2.7L4.5 51l-.9-.8L0 40.7l4.3-2-.7-4.1-.7-4.2 1.9-2.7-.6-1.7 2.6-2.8 1 .2zm57 10.3l3.9 6 1.2-.6-1.6-2.5-3.6-3.8v.9zm-40.3-12v-1.8l3-2.2 2.5-1.3h-3L24.5 18l-1.6 1.5v2.1h1.7zM90.1 41H95v-5.2h2.6c4 0 6.6-2.3 6.6-6 0-3.8-2.6-6.3-6.4-6.3H90V41zm4.8-8.9v-4.8h1.6c1.7 0 2.7 1 2.7 2.4 0 1.5-1 2.4-2.7 2.4H95zM112 41.2c4.2 0 6.8-2.7 6.8-6.7s-2.6-6.8-6.8-6.8c-4.3 0-6.8 2.8-6.8 6.8s2.5 6.7 6.8 6.7zm0-3.4c-1.3 0-2-1.3-2-3.3 0-2.1.7-3.4 2-3.4 1.2 0 2 1.3 2 3.4 0 2-.8 3.3-2 3.3zM127 41.2c3.8 0 6.2-2.2 6.3-5.7h-4.4c0 1.4-.8 2.2-1.9 2.2-1.2 0-2-1.1-2-3.2 0-2.2.8-3.2 2-3.2 1 0 1.8.7 2 2h4.3c0-3.3-2.5-5.6-6.3-5.6-4.3 0-6.8 2.8-6.8 6.8s2.5 6.7 6.8 6.7zM141.5 41.2c3.9 0 6.3-2.2 6.3-5.7h-4.3c-.1 1.4-.9 2.2-2 2.2s-2-1.1-2-3.2c0-2.2.9-3.2 2-3.2s1.8.7 2 2h4.3c0-3.3-2.4-5.6-6.3-5.6-4.2 0-6.8 2.8-6.8 6.8s2.6 6.7 6.8 6.7zM154.2 35v-7h-4.4v13h4.4l3.7-7.1V41h4.4V28h-4.4l-3.7 7zM172.2 41h4.4V28h-6.2c-3.7 0-6.1 1.8-6.1 4.5 0 1.5.9 2.7 2.4 3.4l-2.5 5.1h4.3l2.2-4.3h1.5V41zm0-7.2h-1.7c-1.2 0-1.8-.6-1.8-1.2 0-.5.6-1.2 1.7-1.2h1.8v2.4z" fill="#fff"/></svg>